{"accessors" : [{"bufferView" : 0, "byteOffset" : 0, "componentType" : 5123, "count" : 255000, "type" : "SCALAR", "max" : [45731], "min" : [0]}, {"bufferView" : 1, "byteOffset" : 0, "componentType" : 5126, "count" : 45732, "type" : "VEC3", "max" : [0.8278769254684448, 0.43788623809814453, 0.502971351146698], "min" : [-0.8278769254684448, -0.43788623809814453, -0.502971351146698], "name" : "POSITION"}, {"bufferView" : 1, "byteOffset" : 12, "componentType" : 5126, "count" : 45732, "type" : "VEC2", "max" : [0.9995606541633606, 0.9995583295822144], "min" : [0.00043936731526628137, 0.00044167041778564453], "name" : "TEXCOORD_0"}], "asset" : {"generator" : "Aspose.3D 24.2.0", "version" : "2.0"}, "buffers" : [{"uri" : "buffer.bin", "byteLength" : 5290524}], "bufferViews" : [{"buffer" : 0, "byteOffset" : 0, "byteLength" : 510000, "target" : 34963}, {"buffer" : 0, "byteOffset" : 510004, "byteLength" : 914640, "byteStride" : 20, "target" : 34962}, {"buffer" : 0, "byteOffset" : 1424648, "byteLength" : 3865873}], "images" : [{"mimeType" : "image/png", "bufferView" : 2}], "materials" : [{"name" : "mat0", "pbrMetallicRoughness" : {"baseColorFactor" : [1, 1, 1, 1], "baseColorTexture" : {"index" : 0, "texCoord" : 0}, "metallicFactor" : 0, "roughnessFactor" : 1}, "emissiveFactor" : [0, 0, 0], "alphaMode" : "OPAQUE", "doubleSided" : false}], "meshes" : [{"primitives" : [{"attributes" : {"POSITION" : 1, "TEXCOORD_0" : 2}, "indices" : 0, "material" : 0, "mode" : 4}], "name" : "default"}], "nodes" : [{"mesh" : 0, "name" : "output"}], "samplers" : [{"magFilter" : 9729, "minFilter" : 9729, "wrapS" : 10497, "wrapT" : 10497}], "scene" : 0, "scenes" : [{"nodes" : [0]}], "textures" : [{"sampler" : 0, "source" : 0, "name" : "diffuseColor_texture"}]}