{"accessors" : [{"bufferView" : 0, "byteOffset" : 0, "componentType" : 5123, "count" : 45000, "type" : "SCALAR", "max" : [8687], "min" : [0]}, {"bufferView" : 1, "byteOffset" : 0, "componentType" : 5126, "count" : 8688, "type" : "VEC3", "max" : [0.6154050230979919, 0.7229953408241272, 0.5953407883644104], "min" : [-0.6631894707679749, -0.5851401686668396, -0.5741256475448608], "name" : "POSITION"}, {"bufferView" : 1, "byteOffset" : 12, "componentType" : 5126, "count" : 8688, "type" : "VEC2", "max" : [0.9995483160018921, 0.999549925327301], "min" : [0.0004516711924225092, 0.0004500746726989746], "name" : "TEXCOORD_0"}], "asset" : {"generator" : "Aspose.3D 24.4.1", "version" : "2.0"}, "buffers" : [{"uri" : "data:application/octet-stream;base64,", "byteLength" : 263768}], "bufferViews" : [{"buffer" : 0, "byteOffset" : 0, "byteLength" : 90000, "target" : 34963}, {"buffer" : 0, "byteOffset" : 90004, "byteLength" : 173760, "byteStride" : 20, "target" : 34962}], "images" : [{"uri" : "data:image/png;base64,"}], "materials" : [{"name" : "mat0", "pbrMetallicRoughness" : {"baseColorFactor" : [1, 1, 1, 1], "baseColorTexture" : {"index" : 0, "texCoord" : 0}, "metallicFactor" : 0, "roughnessFactor" : 1}, "emissiveFactor" : [0, 0, 0], "alphaMode" : "OPAQUE", "doubleSided" : false}], "meshes" : [{"primitives" : [{"attributes" : {"POSITION" : 1, "TEXCOORD_0" : 2}, "indices" : 0, "material" : 0, "mode" : 4}], "name" : "default"}], "nodes" : [{"mesh" : 0, "name" : "output"}], "samplers" : [{"magFilter" : 9729, "minFilter" : 9729, "wrapS" : 10497, "wrapT" : 10497}], "scene" : 0, "scenes" : [{"nodes" : [0]}], "textures" : [{"sampler" : 0, "source" : 0, "name" : "diffuseColor_texture"}]}