{"accessors" : [{"bufferView" : 0, "byteOffset" : 0, "componentType" : 5123, "count" : 45000, "type" : "SCALAR", "max" : [8310], "min" : [0]}, {"bufferView" : 1, "byteOffset" : 0, "componentType" : 5126, "count" : 8311, "type" : "VEC3", "max" : [0.8719449639320374, 0.6993106007575989, 0.7840253114700317], "min" : [-0.8574564456939697, -0.7125434875488281, -0.6645691394805908], "name" : "POSITION"}, {"bufferView" : 1, "byteOffset" : 12, "componentType" : 5126, "count" : 8311, "type" : "VEC2", "max" : [0.9994856119155884, 0.9995543956756592], "min" : [0.0005144032766111195, 0.0004456043243408203], "name" : "TEXCOORD_0"}], "asset" : {"generator" : "Aspose.3D 24.2.0", "version" : "2.0"}, "buffers" : [{"uri" : "buffer.bin", "byteLength" : 536536}], "bufferViews" : [{"buffer" : 0, "byteOffset" : 0, "byteLength" : 90000, "target" : 34963}, {"buffer" : 0, "byteOffset" : 90004, "byteLength" : 166220, "byteStride" : 20, "target" : 34962}, {"buffer" : 0, "byteOffset" : 256228, "byteLength" : 280304}], "images" : [{"mimeType" : "image/png", "bufferView" : 2}], "materials" : [{"name" : "mat0", "pbrMetallicRoughness" : {"baseColorFactor" : [1, 1, 1, 1], "baseColorTexture" : {"index" : 0, "texCoord" : 0}, "metallicFactor" : 0, "roughnessFactor" : 1}, "emissiveFactor" : [0, 0, 0], "alphaMode" : "OPAQUE", "doubleSided" : false}], "meshes" : [{"primitives" : [{"attributes" : {"POSITION" : 1, "TEXCOORD_0" : 2}, "indices" : 0, "material" : 0, "mode" : 4}], "name" : "default"}], "nodes" : [{"mesh" : 0, "name" : "output"}], "samplers" : [{"magFilter" : 9729, "minFilter" : 9729, "wrapS" : 10497, "wrapT" : 10497}], "scene" : 0, "scenes" : [{"nodes" : [0]}], "textures" : [{"sampler" : 0, "source" : 0, "name" : "diffuseColor_texture"}]}