{
  "accessors": [
    {
      "bufferView": 0,
      "componentType": 5125,
      "count": 3168,
      "type": "SCALAR"
    },
    {
      "bufferView": 1,
      "componentType": 5126,
      "count": 700,
      "max": [
        0.771854937076569,
        0.380999743938446,
        0.699552893638611
      ],
      "min": [
        -0.771854937076569,
        -0.397307634353638,
        0.168501645326614
      ],
      "type": "VEC3"
    },
    {
      "bufferView": 2,
      "componentType": 5126,
      "count": 700,
      "type": "VEC3"
    },
    {
      "bufferView": 3,
      "componentType": 5126,
      "count": 700,
      "type": "VEC2"
    },
    {
      "bufferView": 4,
      "componentType": 5125,
      "count": 33504,
      "type": "SCALAR"
    },
    {
      "bufferView": 5,
      "componentType": 5126,
      "count": 8035,
      "max": [
        0.90466320514679,
        0.38099992275238,
        0.603988349437714
      ],
      "min": [
        -0.90466320514679,
        -0.390554130077362,
        0.168501675128937
      ],
      "type": "VEC3"
    },
    {
      "bufferView": 6,
      "componentType": 5126,
      "count": 8035,
      "type": "VEC3"
    },
    {
      "bufferView": 7,
      "componentType": 5126,
      "count": 8035,
      "type": "VEC2"
    },
    {
      "bufferView": 8,
      "componentType": 5125,
      "count": 384,
      "type": "SCALAR"
    },
    {
      "bufferView": 9,
      "componentType": 5126,
      "count": 248,
      "max": [
        0.870374262332916,
        0.357228875160217,
        0.168501615524292
      ],
      "min": [
        -0.870374262332916,
        -0.357228875160217,
        0
      ],
      "type": "VEC3"
    },
    {
      "bufferView": 10,
      "componentType": 5126,
      "count": 248,
      "type": "VEC3"
    },
    {
      "bufferView": 11,
      "componentType": 5126,
      "count": 248,
      "type": "VEC2"
    },
    {
      "bufferView": 12,
      "componentType": 5125,
      "count": 18432,
      "type": "SCALAR"
    },
    {
      "bufferView": 13,
      "componentType": 5126,
      "count": 4494,
      "max": [
        0.768692076206207,
        0.266712069511414,
        0.861154556274414
      ],
      "min": [
        -0.768692076206207,
        0.068574495613575,
        0.407320201396942
      ],
      "type": "VEC3"
    },
    {
      "bufferView": 14,
      "componentType": 5126,
      "count": 4494,
      "type": "VEC3"
    },
    {
      "bufferView": 15,
      "componentType": 5126,
      "count": 4494,
      "type": "VEC2"
    }
  ],
  "asset": {
    "generator": "Substance Painter 7.1.1",
    "version": "2.0"
  },
  "bufferViews": [
    {
      "buffer": 0,
      "byteLength": 12672,
      "target": 34963,
      "byteOffset": 0
    },
    {
      "buffer": 0,
      "byteLength": 8400,
      "byteOffset": 12672,
      "target": 34962
    },
    {
      "buffer": 0,
      "byteLength": 8400,
      "byteOffset": 21072,
      "target": 34962
    },
    {
      "buffer": 0,
      "byteLength": 5600,
      "byteOffset": 29472,
      "target": 34962
    },
    {
      "buffer": 0,
      "byteLength": 134016,
      "byteOffset": 35072,
      "target": 34963
    },
    {
      "buffer": 0,
      "byteLength": 96420,
      "byteOffset": 169088,
      "target": 34962
    },
    {
      "buffer": 0,
      "byteLength": 96420,
      "byteOffset": 265508,
      "target": 34962
    },
    {
      "buffer": 0,
      "byteLength": 64280,
      "byteOffset": 361928,
      "target": 34962
    },
    {
      "buffer": 0,
      "byteLength": 1536,
      "byteOffset": 426208,
      "target": 34963
    },
    {
      "buffer": 0,
      "byteLength": 2976,
      "byteOffset": 427744,
      "target": 34962
    },
    {
      "buffer": 0,
      "byteLength": 2976,
      "byteOffset": 430720,
      "target": 34962
    },
    {
      "buffer": 0,
      "byteLength": 1984,
      "byteOffset": 433696,
      "target": 34962
    },
    {
      "buffer": 0,
      "byteLength": 73728,
      "byteOffset": 435680,
      "target": 34963
    },
    {
      "buffer": 0,
      "byteLength": 53928,
      "byteOffset": 509408,
      "target": 34962
    },
    {
      "buffer": 0,
      "byteLength": 53928,
      "byteOffset": 563336,
      "target": 34962
    },
    {
      "buffer": 0,
      "byteLength": 35952,
      "byteOffset": 617264,
      "target": 34962
    }
  ],
  "buffers": [
    {
      "uri": "uploads-files-3170821-Red_sofa_glb_data.bin",
      "byteLength": 653216
    }
  ],
  "images": [
    {
      "uri": "uploads-files-3170821-Red_sofa_glb_img0.png"
    },
    {
      "uri": "uploads-files-3170821-Red_sofa_glb_img1.png"
    },
    {
      "uri": "uploads-files-3170821-Red_sofa_glb_img2.png"
    }
  ],
  "materials": [
    {
      "alphaMode": "OPAQUE",
      "name": "DefaultMaterial",
      "normalTexture": {
        "index": 2
      },
      "occlusionTexture": {
        "index": 1
      },
      "pbrMetallicRoughness": {
        "baseColorTexture": {
          "index": 0
        },
        "metallicRoughnessTexture": {
          "index": 1
        }
      }
    }
  ],
  "meshes": [
    {
      "name": "Cube",
      "primitives": [
        {
          "attributes": {
            "NORMAL": 2,
            "POSITION": 1,
            "TEXCOORD_0": 3
          },
          "indices": 0,
          "material": 0,
          "mode": 4
        }
      ]
    },
    {
      "name": "Cube.002",
      "primitives": [
        {
          "attributes": {
            "NORMAL": 6,
            "POSITION": 5,
            "TEXCOORD_0": 7
          },
          "indices": 4,
          "material": 0,
          "mode": 4
        }
      ]
    },
    {
      "name": "Circle",
      "primitives": [
        {
          "attributes": {
            "NORMAL": 10,
            "POSITION": 9,
            "TEXCOORD_0": 11
          },
          "indices": 8,
          "material": 0,
          "mode": 4
        }
      ]
    },
    {
      "name": "Cube.003",
      "primitives": [
        {
          "attributes": {
            "NORMAL": 14,
            "POSITION": 13,
            "TEXCOORD_0": 15
          },
          "indices": 12,
          "material": 0,
          "mode": 4
        }
      ]
    }
  ],
  "nodes": [
    {
      "children": [
        1,
        3,
        5,
        7
      ],
      "name": "RootNode"
    },
    {
      "children": [
        2
      ],
      "name": "Cube",
      "rotation": [
        -0.707106828689575,
        0,
        0,
        0.707106709480286
      ],
      "scale": [
        100,
        100,
        100
      ]
    },
    {
      "mesh": 0,
      "name": "Cube"
    },
    {
      "children": [
        4
      ],
      "name": "Cube.002",
      "rotation": [
        -0.707106828689575,
        0,
        0,
        0.707106709480286
      ],
      "scale": [
        100,
        100,
        100
      ]
    },
    {
      "mesh": 1,
      "name": "Cube.002"
    },
    {
      "children": [
        6
      ],
      "name": "Circle",
      "rotation": [
        -0.707106828689575,
        0,
        0,
        0.707106709480286
      ],
      "scale": [
        100,
        100,
        100
      ]
    },
    {
      "mesh": 2,
      "name": "Circle"
    },
    {
      "children": [
        8
      ],
      "name": "Cube.003",
      "rotation": [
        -0.707106828689575,
        0,
        0,
        0.707106709480286
      ],
      "scale": [
        100,
        100,
        100
      ]
    },
    {
      "mesh": 3,
      "name": "Cube.003"
    }
  ],
  "samplers": [
    {
      "magFilter": 9729,
      "minFilter": 9985,
      "wrapS": 10497,
      "wrapT": 10497
    }
  ],
  "scene": 0,
  "scenes": [
    {
      "name": "Scene",
      "nodes": [
        0
      ]
    }
  ],
  "textures": [
    {
      "sampler": 0,
      "source": 0
    },
    {
      "sampler": 0,
      "source": 1
    },
    {
      "sampler": 0,
      "source": 2
    }
  ]
}